<svg xmlns="http://www.w3.org/2000/svg" version="1.0" width="1312.000000pt" height="736.000000pt" viewBox="0 0 1312.000000 736.000000" preserveAspectRatio="xMidYMid meet">

<g transform="translate(0.000000,736.000000) scale(0.100000,-0.100000)" fill="#ffffff" stroke="none">
<path d="M6680 6453 c-49 -18 -164 -81 -220 -121 -87 -62 -220 -190 -220 -212 0 -12 14 -21 48 -30 110 -30 261 -126 343 -218 149 -168 231 -395 202 -564 -12 -75 -5 -94 40 -102 51 -10 226 12 260 32 126 73 155 381 60 645 -78 221 -227 421 -392 529 -71 46 -89 53 -121 41z" fill="#ffffff"/>
<path d="M7017 6397 l-29 -12 61 -69 c124 -141 213 -304 258 -474 21 -80 26 -120 26 -227 0 -145 -15 -219 -64 -316 -16 -32 -29 -63 -29 -69 0 -28 163 9 270 61 195 97 258 218 267 520 6 167 -5 250 -47 363 -39 102 -88 143 -224 185 -151 47 -421 67 -489 38z" fill="#ffffff"/>
<path d="M7885 6128 c-2 -7 -6 -101 -8 -208 -6 -222 -16 -278 -78 -434 -49 -123 -48 -131 29 -184 91 -62 168 -38 304 96 103 101 156 166 192 238 31 61 32 94 7 150 -39 86 -223 255 -352 324 -61 32 -87 37 -94 18z" fill="#ffffff"/>
<path d="M6177 6012 c-24 -26 -76 -145 -83 -189 -8 -49 13 -75 214 -269 84 -81 187 -188 229 -238 124 -149 145 -161 195 -108 37 37 48 73 48 147 0 90 -16 157 -60 250 -84 180 -236 324 -413 389 -96 36 -112 38 -130 18z" fill="#ffffff"/>
<path d="M5169 5935 c-26 -8 -69 -35 -96 -59 -91 -82 -133 -194 -133 -357 0 -427 442 -750 746 -546 154 102 176 355 55 602 -124 250 -391 418 -572 360z m26 -99 c1 -64 5 -83 38 -149 39 -80 128 -178 242 -271 75 -60 128 -130 151 -198 24 -70 23 -163 -2 -213 -30 -60 -41 -55 -46 22 -7 122 -56 189 -264 364 -50 42 -107 101 -126 130 -61 92 -81 195 -57 284 11 42 46 105 57 105 4 0 7 -33 7 -74z" fill="#ffffff"/>
<path d="M6031 5679 c-33 -54 -65 -204 -65 -309 -1 -108 15 -148 73 -187 101 -68 456 -154 526 -127 18 7 45 55 45 79 0 9 -15 30 -33 48 -19 18 -79 84 -135 147 -88 100 -232 242 -354 349 l-37 33 -20 -33z" fill="#ffffff"/>
<path d="M8245 5399 c-71 -61 -142 -118 -157 -127 -40 -23 -53 -61 -35 -103 16 -39 127 -146 166 -160 48 -19 201 32 246 81 29 32 25 154 -9 284 -24 94 -46 136 -70 136 -6 -1 -69 -50 -141 -111z" fill="#ffffff"/>
<path d="M2505 5360 c-419 -53 -817 -375 -1059 -857 -104 -208 -171 -425 -206 -666 -24 -163 -27 -452 -5 -604 65 -455 256 -737 555 -819 98 -27 279 -24 395 5 374 96 657 348 860 766 35 72 77 173 94 225 l31 96 58 28 c181 89 303 226 378 424 l33 87 133 12 c73 6 135 10 137 8 6 -6 -75 -161 -532 -1023 -57 -109 -60 -117 -65 -203 -4 -82 -3 -89 14 -89 11 0 172 11 359 25 187 14 352 25 367 25 24 0 28 5 33 38 4 20 13 70 21 111 8 41 13 75 12 76 -2 1 -108 -6 -235 -15 -128 -8 -233 -13 -233 -11 0 21 515 986 561 1053 16 21 19 45 19 133 l0 108 -82 -7 c-46 -3 -182 -13 -303 -21 -121 -8 -255 -18 -297 -21 l-78 -7 0 -67 c0 -78 -28 -198 -63 -267 -27 -53 -104 -131 -157 -158 -32 -16 -33 -16 -26 1 35 90 57 538 36 725 -36 333 -149 553 -328 641 -66 32 -69 33 -202 33 -120 -1 -142 -4 -202 -27 -373 -142 -609 -594 -547 -1045 32 -237 160 -450 333 -558 121 -74 242 -105 419 -105 113 0 107 11 59 -110 -66 -170 -164 -332 -266 -438 -185 -193 -429 -263 -609 -174 -315 155 -412 829 -215 1496 101 345 242 609 418 786 186 187 382 274 648 287 134 7 150 16 90 53 -75 46 -220 66 -353 50z m303 -406 c78 -32 127 -106 164 -242 26 -101 36 -404 19 -589 -12 -125 -48 -338 -74 -438 l-13 -50 -98 -3 c-229 -7 -391 87 -485 280 -50 103 -71 205 -71 348 0 184 44 340 134 479 49 77 132 163 179 188 84 43 180 54 245 27z" fill="#ffffff"/>
<path d="M9500 5145 c-134 -42 -208 -205 -151 -331 46 -101 156 -119 273 -45 152 97 141 337 -17 380 -48 13 -49 13 -105 -4z" fill="#ffffff"/>
<path d="M8995 5068 c-65 -5 -121 -11 -123 -13 -3 -2 -22 -105 -43 -227 -21 -123 -54 -315 -74 -428 -19 -113 -62 -363 -95 -555 -33 -193 -66 -369 -74 -391 -41 -118 -91 -174 -159 -181 -39 -5 -49 -2 -71 20 -14 14 -26 36 -26 49 0 25 39 258 95 560 40 220 43 299 15 390 -40 131 -143 205 -271 196 -87 -7 -144 -35 -227 -112 -54 -51 -64 -57 -59 -36 3 14 9 47 13 74 l7 49 -64 -6 c-35 -4 -103 -9 -151 -13 -49 -3 -88 -10 -88 -14 0 -9 -56 -325 -71 -397 -10 -49 -13 -53 -62 -77 -30 -16 -68 -26 -93 -26 l-41 0 -7 103 c-20 290 -121 417 -332 417 -98 0 -184 -28 -272 -90 -198 -139 -331 -403 -376 -746 -22 -167 -80 -290 -182 -384 -123 -113 -309 -139 -386 -53 -36 39 -59 113 -65 202 l-6 87 54 12 c147 34 344 145 438 248 103 113 164 299 143 438 -34 224 -247 306 -487 187 -103 -51 -198 -137 -270 -245 -101 -152 -155 -326 -179 -576 -19 -191 -62 -311 -143 -401 -37 -41 -114 -99 -131 -99 -5 0 4 75 20 168 50 291 117 670 158 892 22 118 40 223 40 233 0 17 -8 18 -112 12 -173 -9 -175 -10 -182 -50 -8 -38 -17 -43 -37 -19 -41 49 -149 74 -242 54 -296 -61 -522 -419 -567 -900 -17 -183 3 -347 56 -453 34 -68 67 -103 129 -135 43 -23 63 -27 135 -27 103 0 171 27 248 99 l49 46 -8 -52 c-5 -29 -12 -67 -14 -85 -5 -25 -21 -42 -93 -94 -111 -80 -286 -255 -341 -339 -23 -36 -53 -102 -67 -147 -23 -72 -26 -96 -22 -180 5 -113 23 -158 87 -216 41 -37 120 -67 177 -67 49 0 154 36 207 70 67 45 142 131 177 204 38 81 59 171 111 489 l42 257 52 30 c109 63 190 148 281 297 10 16 14 13 34 -30 12 -26 42 -69 66 -96 179 -199 595 -117 793 157 l45 61 22 -55 c57 -140 167 -214 319 -214 140 0 259 52 365 159 122 123 184 252 236 493 l28 127 65 27 c37 14 72 31 79 36 7 6 15 9 17 6 5 -4 -42 -287 -104 -628 -17 -90 -29 -165 -28 -166 1 -2 67 0 147 4 l144 7 87 477 c48 262 92 494 99 515 34 103 100 196 157 219 57 24 101 18 139 -20 32 -32 34 -38 34 -100 0 -36 -27 -229 -61 -428 -57 -341 -60 -367 -49 -431 24 -153 98 -222 236 -221 95 1 179 40 257 118 l57 56 20 -39 c11 -22 35 -51 53 -65 103 -79 323 -36 430 84 46 51 57 59 57 38 0 -23 52 -79 93 -100 58 -29 157 -35 232 -14 66 20 96 36 143 80 18 17 31 24 28 16 -2 -8 -7 -30 -10 -49 l-6 -34 142 7 c79 4 144 8 145 9 0 1 10 52 21 112 177 959 171 933 231 1027 41 65 91 100 151 106 46 4 52 2 85 -31 33 -33 35 -38 35 -104 0 -38 -22 -195 -49 -348 -68 -384 -74 -437 -68 -520 7 -94 42 -164 99 -202 38 -25 50 -28 132 -28 78 0 99 4 148 27 72 33 139 95 185 170 l37 60 23 -47 c32 -63 89 -117 159 -151 51 -25 73 -29 164 -32 279 -10 487 136 631 442 36 79 89 255 104 352 6 37 4 41 -20 52 -34 16 -100 15 -112 0 -6 -7 -20 -57 -32 -111 -52 -226 -154 -390 -287 -457 -41 -21 -63 -25 -139 -25 -79 0 -94 3 -124 24 -51 37 -83 115 -89 220 l-5 86 79 23 c98 29 223 87 301 140 292 199 367 613 134 745 -98 55 -228 49 -371 -20 -109 -52 -247 -193 -311 -318 -81 -157 -120 -303 -139 -518 -15 -177 -61 -318 -123 -375 -33 -31 -98 -40 -132 -18 -38 25 -34 72 41 453 90 456 90 553 3 680 -37 53 -83 81 -158 95 -108 20 -235 -31 -321 -130 -44 -49 -46 -45 -25 41 l14 59 -47 -6 c-26 -3 -93 -8 -150 -12 -63 -4 -105 -11 -108 -18 -2 -6 -17 -85 -33 -176 -115 -647 -124 -689 -163 -807 -48 -146 -81 -203 -133 -227 -67 -32 -135 0 -135 63 0 26 116 690 171 979 18 90 30 164 28 166 -6 4 -293 -15 -298 -19 -2 -2 -34 -183 -72 -402 -91 -533 -102 -585 -139 -681 -36 -95 -80 -146 -133 -156 -67 -13 -107 18 -107 81 0 61 235 1388 296 1671 5 25 14 25 -181 10z m2595 -593 c93 -48 45 -271 -85 -394 -55 -52 -168 -113 -233 -126 l-33 -7 6 39 c48 274 116 428 214 480 51 27 90 29 131 8z m-4527 -245 c28 -22 42 -59 52 -136 6 -48 5 -52 -18 -58 -131 -32 -159 -259 -38 -312 40 -17 41 -18 34 -58 -11 -77 -51 -221 -76 -276 -35 -79 -81 -136 -135 -171 -40 -26 -54 -30 -95 -26 -101 9 -132 80 -131 297 2 331 106 645 243 731 56 36 125 40 164 9z m-970 -47 c30 -27 40 -89 27 -157 -32 -164 -153 -295 -318 -346 -36 -11 -66 -19 -68 -17 -7 6 38 207 61 278 27 81 84 177 128 217 53 49 130 60 170 25z m-1129 -84 c19 -16 38 -38 41 -48 3 -9 -17 -149 -44 -311 -53 -316 -92 -463 -154 -575 -78 -140 -221 -141 -262 -2 -20 67 -20 277 1 414 27 188 94 374 164 463 38 49 120 90 177 90 33 0 50 -7 77 -31z m-229 -1720 c-44 -262 -62 -311 -127 -345 -38 -19 -88 -12 -114 17 -15 16 -19 36 -18 85 1 100 51 189 177 321 63 65 103 100 105 91 2 -8 -9 -84 -23 -169z" fill="#ffffff"/>
<path d="M6027 5053 c-34 -34 93 -349 153 -381 35 -18 144 -10 202 16 36 15 52 30 69 64 20 39 81 219 76 224 -6 6 -440 84 -465 84 -16 0 -32 -3 -35 -7z" fill="#ffffff"/>
<path d="M10060 2865 c-45 -122 -39 -114 -89 -121 -25 -3 -62 -9 -81 -13 l-34 -7 61 -46 60 -47 -14 -72 c-7 -40 -11 -74 -9 -76 2 -2 31 13 64 33 l61 36 66 -36 c72 -41 72 -42 49 54 l-15 65 62 55 63 55 -80 5 -79 5 -37 70 -37 70 -11 -30z" fill="#ffffff"/>
<path d="M11825 2807 c0 -55 -5 -83 -23 -119 -165 -335 -914 -518 -2412 -588 -113 -6 -641 -14 -1175 -19 -1117 -11 -1405 -17 -1600 -31 -521 -39 -951 -99 -1240 -175 -527 -138 -963 -364 -1327 -689 -116 -103 -130 -136 -35 -82 336 195 633 291 1122 366 485 75 780 91 2375 135 789 22 1162 37 1680 71 1220 78 2003 246 2416 520 195 130 304 341 274 531 -9 57 -42 153 -52 153 -2 0 -3 -33 -3 -73z" fill="#ffffff"/>
<path d="M9443 2845 c-6 -11 -18 -43 -28 -72 -20 -57 -11 -52 -137 -69 l-48 -6 60 -46 c66 -51 67 -55 46 -144 -7 -32 -12 -58 -10 -58 1 0 30 17 64 37 l62 36 64 -31 c35 -18 66 -32 68 -32 2 0 -3 26 -10 58 -20 84 -18 92 41 142 29 25 54 48 54 53 1 4 -33 7 -75 7 l-75 0 -33 72 c-29 63 -34 70 -43 53z" fill="#ffffff"/>
<path d="M8800 2764 c-14 -36 -32 -70 -40 -74 -8 -4 -46 -11 -85 -15 l-70 -8 35 -26 c19 -14 47 -37 62 -51 l28 -25 -15 -69 c-8 -38 -13 -71 -12 -72 2 -2 29 12 60 31 32 19 63 35 70 35 7 0 36 -14 66 -30 30 -17 56 -28 58 -26 2 2 -4 34 -13 71 l-17 68 64 58 64 58 -81 1 -81 0 -32 70 c-17 39 -32 70 -34 70 -1 0 -14 -30 -27 -66z" fill="#ffffff"/>
<path d="M8191 2780 c-6 -14 -19 -47 -30 -75 l-19 -50 -76 -9 c-42 -4 -76 -11 -76 -15 0 -3 25 -24 55 -45 30 -22 55 -47 55 -55 -1 -9 -7 -44 -14 -78 -7 -35 -11 -63 -9 -63 3 0 32 16 65 37 l61 36 64 -32 c36 -18 67 -31 68 -29 2 2 -4 34 -13 71 l-16 69 55 53 55 53 -35 6 c-20 3 -54 6 -76 6 -40 0 -40 1 -72 72 -30 68 -32 71 -42 48z" fill="#ffffff"/>
<path d="M7572 2740 c-5 -14 -18 -45 -28 -70 -10 -25 -22 -48 -27 -51 -5 -4 -41 -10 -81 -14 l-71 -7 26 -21 c14 -12 40 -33 58 -47 l34 -26 -13 -72 c-7 -41 -10 -76 -7 -78 3 -3 31 10 61 30 31 20 61 36 66 36 6 0 35 -14 66 -31 30 -17 58 -29 61 -26 3 4 -2 37 -12 74 l-18 69 59 57 59 57 -76 0 -77 0 -35 73 c-33 68 -35 71 -45 47z" fill="#ffffff"/>
<path d="M6925 2658 l-29 -77 -66 -6 c-97 -9 -97 -11 -38 -56 29 -23 57 -45 61 -49 4 -3 1 -35 -8 -71 -8 -35 -15 -70 -15 -76 0 -7 28 5 65 27 36 22 67 40 69 40 2 0 32 -16 66 -35 35 -20 64 -34 66 -32 2 2 -6 37 -17 78 l-21 74 49 42 c26 24 51 43 56 43 4 0 7 5 7 10 0 6 -28 10 -62 10 -35 0 -69 4 -77 9 -8 5 -28 40 -45 77 l-32 68 -29 -76z" fill="#ffffff"/>
<path d="M6318 2623 c-28 -73 -37 -80 -113 -82 -71 -2 -73 -14 -11 -62 31 -24 56 -47 56 -51 0 -4 -7 -37 -15 -74 -9 -36 -14 -68 -13 -70 2 -2 28 12 58 31 30 19 60 37 66 40 6 3 39 -10 73 -30 35 -20 64 -35 67 -33 2 2 -5 36 -16 74 l-20 69 55 53 c30 30 55 55 55 57 0 2 -33 5 -72 7 l-73 3 -33 64 c-18 36 -34 66 -36 68 -2 2 -15 -27 -28 -64z" fill="#ffffff"/>
<path d="M5702 2581 c-22 -66 -24 -69 -60 -75 -20 -3 -54 -6 -74 -6 -21 0 -38 -4 -38 -9 0 -4 25 -28 55 -52 50 -39 55 -47 51 -74 -3 -16 -9 -50 -12 -74 l-7 -44 44 27 c84 52 82 51 145 17 32 -17 61 -31 64 -31 4 0 -2 33 -13 72 l-20 73 57 51 c53 48 55 52 34 58 -13 3 -48 6 -79 6 l-55 0 -29 61 c-16 33 -32 62 -35 64 -4 2 -16 -27 -28 -64z" fill="#ffffff"/>
<path d="M3008 2176 c-316 -56 -568 -247 -608 -461 -11 -58 -10 -71 9 -132 62 -203 283 -372 560 -428 126 -26 370 -17 506 19 127 33 300 118 386 189 102 85 178 202 179 274 0 28 -6 36 -38 52 -56 29 -181 43 -272 32 -114 -15 -156 -26 -328 -87 -204 -73 -314 -100 -437 -109 -217 -15 -513 53 -523 121 -3 20 -2 21 60 8 157 -33 324 -7 570 91 201 79 321 105 482 105 174 0 323 -37 421 -103 21 -15 42 -24 47 -21 17 11 7 66 -19 106 -96 154 -289 278 -511 329 -113 27 -373 34 -484 15z" fill="#ffffff"/>
</g>
</svg>